# Blender v2.83.1 OBJ File: 'Hex.blend'
# www.blender.org
mtllib Hex.mtl
o Circle
v 0.000000 0.000000 -1.000000
v -0.866025 0.000000 -0.500000
v -0.866025 0.000000 0.500000
v 0.000000 0.000000 1.000000
v 0.866025 0.000000 0.500000
v 0.866025 0.000000 -0.500000
v -0.763944 0.135238 -0.441063
v 0.000000 0.135238 -0.882127
v 0.000000 0.135238 0.000000
v -0.763944 0.135238 0.441063
v 0.000000 0.135238 0.882127
v 0.763944 0.135238 0.441063
v 0.763944 0.135238 -0.441063
vt 0.500000 0.500000
vt 0.500000 1.000000
vt 0.066987 0.750000
vt 0.066987 0.250000
vt 0.500000 0.000000
vt 0.933013 0.250000
vt 0.933013 0.750000
vt 0.933013 0.750000
vt 0.500000 1.000000
vt 0.066987 0.750000
vt 0.933013 0.250000
vt 0.500000 0.000000
vt 0.066987 0.250000
vn 0.0000 1.0000 0.0000
vn 0.3991 0.6025 -0.6912
vn -0.3991 0.6025 -0.6912
vn 0.7981 0.6025 0.0000
vn 0.3991 0.6025 0.6912
vn -0.3991 0.6025 0.6912
vn -0.7981 0.6025 0.0000
usemtl None
s off
f 9/1/1 8/2/1 7/3/1
f 9/1/1 7/3/1 10/4/1
f 9/1/1 10/4/1 11/5/1
f 9/1/1 11/5/1 12/6/1
f 9/1/1 12/6/1 13/7/1
f 9/1/1 13/7/1 8/2/1
f 6/8/2 1/9/2 8/2/2 13/7/2
f 1/9/3 2/10/3 7/3/3 8/2/3
f 5/11/4 6/8/4 13/7/4 12/6/4
f 4/12/5 5/11/5 12/6/5 11/5/5
f 3/13/6 4/12/6 11/5/6 10/4/6
f 2/10/7 3/13/7 10/4/7 7/3/7
